<svg width="69" height="44" viewBox="0 0 69 44" fill="none" xmlns="http://www.w3.org/2000/svg"><path d="M12.317 9.8V35H5.18897V15.308H.508969V9.8H12.317zm13.2218 9.18c3.528 0 6.132.72 7.812 2.16 1.704 1.44 2.556 3.36 2.556 5.76 0 1.56-.408 3-1.224 4.32-.792 1.296-2.016 2.34-3.672 3.132-1.632.768-3.66 1.152-6.084 1.152-1.776 0-3.54-.216-5.292-.648-1.728-.432-3.216-1.044-4.464-1.836l2.556-5.364c1.008.672 2.112 1.188 3.312 1.548 1.224.36 2.448.54 3.672.54 1.224 0 2.196-.228 2.916-.684.744-.48 1.116-1.14 1.116-1.98 0-.84-.36-1.476-1.08-1.908-.72-.432-1.992-.648-3.816-.648h-6.84l1.26-14.724h16.056v5.508h-10.152l-.324 3.672h1.692zm18.0956 4.464c-1.896 0-3.444-.624-4.644-1.872-1.2-1.248-1.8-2.952-1.8-5.112 0-1.416.276-2.652.828-3.708.552-1.056 1.308-1.86 2.268-2.412.984-.576 2.1-.864 3.348-.864 1.92 0 3.48.636 4.68 1.908 1.2 1.248 1.8 2.94 1.8 5.076 0 2.16-.6 3.864-1.8 5.112-1.2 1.248-2.76 1.872-4.68 1.872zM58.5384 9.8h5.184L46.5144 35h-5.184l17.208-25.2zm-14.904 10.224c.648 0 1.164-.288 1.548-.864.384-.576.576-1.476.576-2.7 0-1.224-.192-2.124-.576-2.7-.384-.576-.9-.864-1.548-.864-.624 0-1.14.3-1.548.9-.384.576-.576 1.464-.576 2.664 0 1.2.192 2.1.576 2.7.408.576.924.864 1.548.864zm17.784 15.3c-1.92 0-3.48-.624-4.68-1.872-1.176-1.248-1.764-2.952-1.764-5.112 0-2.136.6-3.828 1.8-5.076 1.2-1.272 2.748-1.908 4.644-1.908 1.92 0 3.48.636 4.68 1.908 1.2 1.248 1.8 2.94 1.8 5.076 0 2.16-.6 3.864-1.8 5.112-1.2 1.248-2.76 1.872-4.68 1.872zm0-3.42c.648 0 1.164-.288 1.548-.864.384-.576.576-1.476.576-2.7 0-1.224-.192-2.124-.576-2.7-.384-.576-.9-.864-1.548-.864s-1.164.288-1.548.864c-.384.576-.576 1.476-.576 2.7 0 1.224.192 2.124.576 2.7.384.576.9.864 1.548.864z" fill="#000"/></svg>