<svg width="79" height="44" viewBox="0 0 79 44" fill="none" xmlns="http://www.w3.org/2000/svg"><path d="M14.3257 19.88c2.088.432 3.684 1.296 4.788 2.592 1.128 1.272 1.692 2.82 1.692 4.644 0 1.488-.408 2.868-1.224 4.14-.792 1.272-2.016 2.304-3.672 3.096-1.632.768-3.66 1.152-6.08397 1.152-1.776 0-3.54-.216-5.292-.648-1.728-.432-3.228-1.044-4.499996-1.836l2.591996-5.364c.984.672 2.088 1.188 3.312 1.548 1.248.36 2.472.54 3.67201.54 1.22396 0 2.19596-.228 2.91596-.684.72-.456 1.08-1.104 1.08-1.944 0-1.632-1.284-2.448-3.85197-2.448h-2.988v-4.5l4.49997-4.86H1.32973V9.8H19.5457v4.464l-5.22 5.616zm19.8914 15.624c-2.16 0-4.08-.516-5.76-1.548-1.68-1.032-3-2.532-3.96-4.5-.936-1.992-1.404-4.344-1.404-7.056 0-2.712.468-5.052 1.404-7.02.96-1.992 2.28-3.504 3.96-4.536 1.68-1.032 3.6-1.548 5.76-1.548 2.136 0 4.044.516 5.724 1.548 1.68 1.032 2.988 2.544 3.924 4.536.96 1.968 1.44 4.308 1.44 7.02 0 2.712-.48 5.064-1.44 7.056-.936 1.968-2.244 3.468-3.924 4.5-1.68 1.032-3.588 1.548-5.724 1.548zm0-5.832c1.2 0 2.148-.576 2.844-1.728.72-1.176 1.08-3.024 1.08-5.544 0-2.52-.36-4.356-1.08-5.508-.696-1.176-1.644-1.764-2.844-1.764-1.224 0-2.196.588-2.916 1.764-.696 1.152-1.044 2.988-1.044 5.508s.348 4.368 1.044 5.544c.72 1.152 1.692 1.728 2.916 1.728zm19.5326-6.228c-1.896 0-3.444-.624-4.644-1.872-1.2-1.248-1.8-2.952-1.8-5.112 0-1.416.276-2.652.828-3.708.552-1.056 1.308-1.86 2.268-2.412.984-.576 2.1-.864 3.348-.864 1.92 0 3.48.636 4.68 1.908 1.2 1.248 1.8 2.94 1.8 5.076 0 2.16-.6 3.864-1.8 5.112-1.2 1.248-2.76 1.872-4.68 1.872zM68.6537 9.8h5.184L56.6297 35h-5.184l17.208-25.2zm-14.904 10.224c.648 0 1.164-.288 1.548-.864.384-.576.576-1.476.576-2.7 0-1.224-.192-2.124-.576-2.7-.384-.576-.9-.864-1.548-.864-.624 0-1.14.3-1.548.9-.384.576-.576 1.464-.576 2.664 0 1.2.192 2.1.576 2.7.408.576.924.864 1.548.864zm17.784 15.3c-1.92 0-3.48-.624-4.68-1.872-1.176-1.248-1.764-2.952-1.764-5.112 0-2.136.6-3.828 1.8-5.076 1.2-1.272 2.748-1.908 4.644-1.908 1.92 0 3.48.636 4.68 1.908 1.2 1.248 1.8 2.94 1.8 5.076 0 2.16-.6 3.864-1.8 5.112-1.2 1.248-2.76 1.872-4.68 1.872zm0-3.42c.648 0 1.164-.288 1.548-.864.384-.576.576-1.476.576-2.7 0-1.224-.192-2.124-.576-2.7-.384-.576-.9-.864-1.548-.864s-1.164.288-1.548.864c-.384.576-.576 1.476-.576 2.7 0 1.224.192 2.124.576 2.7.384.576.9.864 1.548.864z" fill="#000"/></svg>