<svg width="81" height="44" viewBox="0 0 81 44" fill="none" xmlns="http://www.w3.org/2000/svg"><path d="M14.446 18.944c1.584 0 3.036.336 4.356 1.008 1.32.648 2.364 1.584 3.132 2.808.792 1.2 1.188 2.58 1.188 4.14 0 1.704-.444 3.216-1.332 4.536-.864 1.296-2.052 2.304-3.564 3.024-1.488.696-3.156 1.044-5.004 1.044-3.60002 0-6.44402-1.068-8.53202-3.204-2.088-2.136-3.132-5.208-3.132-9.216 0-2.88.552-5.352 1.656-7.416 1.128-2.088 2.7-3.672 4.716-4.752 2.016-1.08 4.35602-1.62 7.02002-1.62 1.44 0 2.808.156 4.104.468 1.296.312 2.4.768 3.312 1.368l-2.592 5.112c-1.224-.864-2.772-1.296-4.644-1.296-1.824 0-3.3.504-4.428 1.512-1.12802 1.008-1.77602 2.46-1.94402 4.356 1.44002-1.248 3.33602-1.872 5.68802-1.872zM12.79 30.428c1.008 0 1.824-.288 2.448-.864.648-.576.972-1.356.972-2.34 0-.96-.324-1.728-.972-2.304-.624-.576-1.452-.864-2.484-.864s-1.872.3-2.52.9c-.64802.576-.97202 1.344-.97202 2.304 0 .936.312 1.704.93602 2.304.648.576 1.512.864 2.592.864zm23.2709 5.076c-2.16 0-4.08-.516-5.76-1.548-1.68-1.032-3-2.532-3.96-4.5-.936-1.992-1.404-4.344-1.404-7.056 0-2.712.468-5.052 1.404-7.02.96-1.992 2.28-3.504 3.96-4.536 1.68-1.032 3.6-1.548 5.76-1.548 2.136 0 4.044.516 5.724 1.548 1.68 1.032 2.988 2.544 3.924 4.536.96 1.968 1.44 4.308 1.44 7.02 0 2.712-.48 5.064-1.44 7.056-.936 1.968-2.244 3.468-3.924 4.5-1.68 1.032-3.588 1.548-5.724 1.548zm0-5.832c1.2 0 2.148-.576 2.844-1.728.72-1.176 1.08-3.024 1.08-5.544 0-2.52-.36-4.356-1.08-5.508-.696-1.176-1.644-1.764-2.844-1.764-1.224 0-2.196.588-2.916 1.764-.696 1.152-1.044 2.988-1.044 5.508s.348 4.368 1.044 5.544c.72 1.152 1.692 1.728 2.916 1.728zm19.5325-6.228c-1.896 0-3.444-.624-4.644-1.872-1.2-1.248-1.8-2.952-1.8-5.112 0-1.416.276-2.652.828-3.708.552-1.056 1.308-1.86 2.268-2.412.984-.576 2.1-.864 3.348-.864 1.92 0 3.48.636 4.68 1.908 1.2 1.248 1.8 2.94 1.8 5.076 0 2.16-.6 3.864-1.8 5.112-1.2 1.248-2.76 1.872-4.68 1.872zM70.4974 9.8h5.184L58.4734 35h-5.184l17.208-25.2zm-14.904 10.224c.648 0 1.164-.288 1.548-.864.384-.576.576-1.476.576-2.7 0-1.224-.192-2.124-.576-2.7-.384-.576-.9-.864-1.548-.864-.624 0-1.14.3-1.548.9-.384.576-.576 1.464-.576 2.664 0 1.2.192 2.1.576 2.7.408.576.924.864 1.548.864zm17.784 15.3c-1.92 0-3.48-.624-4.68-1.872-1.176-1.248-1.764-2.952-1.764-5.112 0-2.136.6-3.828 1.8-5.076 1.2-1.272 2.748-1.908 4.644-1.908 1.92 0 3.48.636 4.68 1.908 1.2 1.248 1.8 2.94 1.8 5.076 0 2.16-.6 3.864-1.8 5.112-1.2 1.248-2.76 1.872-4.68 1.872zm0-3.42c.648 0 1.164-.288 1.548-.864.384-.576.576-1.476.576-2.7 0-1.224-.192-2.124-.576-2.7-.384-.576-.9-.864-1.548-.864s-1.164.288-1.548.864c-.384.576-.576 1.476-.576 2.7 0 1.224.192 2.124.576 2.7.384.576.9.864 1.548.864z" fill="#000"/></svg>