<svg width="132" height="29" viewBox="0 0 132 29" fill="none" xmlns="http://www.w3.org/2000/svg"><path d="M13.45 18.08H3.39403L1.13803 23H.250031L8.02603 6.2h.792L16.594 23h-.888l-2.256-4.92zm-.312-.696L8.43403 7.136l-4.728 10.248H13.138zm16.159-3.024c1.312.208 2.304.672 2.976 1.392.672.704 1.008 1.648 1.008 2.832 0 1.44-.512 2.536-1.536 3.288-1.024.752-2.552 1.128-4.584 1.128h-7.296V6.2h6.816c1.776 0 3.168.368 4.176 1.104 1.008.736 1.512 1.792 1.512 3.168 0 1.008-.272 1.84-.816 2.496-.544.656-1.296 1.12-2.256 1.392zm-8.616-7.44v7.2h6.024c1.552 0 2.752-.304 3.6-.912.848-.624 1.272-1.52 1.272-2.688 0-1.168-.424-2.056-1.272-2.664-.848-.624-2.048-.936-3.6-.936h-6.024zm6.528 15.36c1.744 0 3.056-.304 3.936-.912.88-.608 1.32-1.544 1.32-2.808 0-1.28-.44-2.224-1.32-2.832-.88-.608-2.192-.912-3.936-.912h-6.528v7.464h6.528zm17.616.816c-1.632 0-3.112-.368-4.44-1.104-1.312-.736-2.344-1.752-3.096-3.048-.752-1.296-1.128-2.744-1.128-4.344s.376-3.048 1.128-4.344c.752-1.296 1.784-2.312 3.096-3.048 1.328-.736 2.808-1.104 4.44-1.104 1.632 0 3.112.368 4.44 1.104 1.328.736 2.368 1.752 3.12 3.048.752 1.296 1.128 2.744 1.128 4.344s-.376 3.048-1.128 4.344c-.752 1.296-1.792 2.312-3.12 3.048-1.328.736-2.808 1.104-4.44 1.104zm0-.744c1.472 0 2.808-.336 4.008-1.008 1.2-.672 2.144-1.6 2.832-2.784.688-1.184 1.032-2.504 1.032-3.96s-.344-2.776-1.032-3.96c-.688-1.184-1.632-2.112-2.832-2.784-1.2-.672-2.536-1.008-4.008-1.008s-2.808.336-4.008 1.008c-1.184.672-2.12 1.6-2.808 2.784-.688 1.184-1.032 2.504-1.032 3.96s.344 2.776 1.032 3.96c.688 1.184 1.624 2.112 2.808 2.784 1.2.672 2.536 1.008 4.008 1.008zm19.5819.744c-2.08 0-3.704-.608-4.872-1.824-1.152-1.216-1.728-3-1.728-5.352V6.2h.816v9.696c0 2.144.496 3.76 1.488 4.848.992 1.072 2.424 1.608 4.296 1.608 1.856 0 3.28-.536 4.272-1.608 1.008-1.088 1.512-2.704 1.512-4.848V6.2h.792v9.72c0 2.352-.576 4.136-1.728 5.352-1.152 1.216-2.768 1.824-4.848 1.824zM79.8226 6.944h-6.168V6.2h13.128v.744h-6.168V23h-.792V6.944zM112.021 23l-.024-15.144-7.368 12.816h-.432L96.8054 7.904V23h-.792V6.2h.672l7.7276 13.44 7.704-13.44h.672l.024 16.8h-.792zm18.29-.744V23h-11.352V6.2h11.016v.744h-10.2v7.152h9.12v.744h-9.12v7.416h10.536z" fill="#000"/></svg>