<svg width="98" height="154" viewBox="0 0 98 154" fill="none" xmlns="http://www.w3.org/2000/svg"><path d="M76.7647 76.5437c4.938 1.7975 8.7892 4.5735 11.5534 8.3282 2.7653 3.6719 4.1155 8.1117 4.0508 13.3193-.0945 7.6048-3.2258 13.4358-9.3941 17.4928-6.1682 4.057-15.0385 6.013-26.611 5.87l-46.86834-.583L10.574 34.1779l44.3886.5516c11.0765.1377 19.4821 2.3089 25.217 6.5139 5.7359 4.1222 8.5607 9.6551 8.4744 16.5986-.0514 4.133-1.1308 7.8398-3.2384 11.1206-2.0239 3.1991-4.9076 5.7261-8.6509 7.5811zM34.6558 52.2105l-.208 16.7388 16.8627.2095c8.266.1027 12.434-2.6564 12.5038-8.2773.0688-5.5382-4.0298-8.3587-12.2958-8.4614l-16.8627-.2096zm19.9445 51.5875c8.5967.107 12.9315-2.774 13.0044-8.6427.073-5.8689-4.1889-8.8568-12.7856-8.9636l-20.5824-.2558-.2188 17.6071 20.5824.255z" fill="#fff"/></svg>