<svg width="90" height="127" viewBox="0 0 90 127" fill="none" xmlns="http://www.w3.org/2000/svg"><g clip-path="url(#clip0)" fill-rule="evenodd" clip-rule="evenodd"><path d="M70.4186 4.74159h-7.4561l7.7539 8.42401v4.0099H54.7453v-4.6948h7.7524l-7.7524-8.42431V.040771h15.6733V4.74159zm-18.839 0h-7.4561l7.7536 8.42401v4.0099H35.906v-4.6948h7.7533L35.906 4.05639V.040771h15.6736V4.74159zm-18.6548.1908h-8.0456v7.35181h8.0456v4.8913H19.1609V.040772h13.7639V4.93239z" fill="#131313"/><path d="M8.19729 116.807L.021484 24.9978H89.8554L81.672 116.792l-36.7885 10.211-36.68621-10.196z" fill="#1572B6"/><path d="M44.939 119.198l29.7262-8.251 6.9938-78.4422h-36.72v86.6932z" fill="#33A9DC"/><path d="M44.9387 65.7666h14.8817l1.0278-11.5304H44.9387V42.9758h28.2005l-.2697 3.0211-2.764 31.0292H44.9387V65.7666z" fill="#fff"/><path d="M45.0063 95.0092l-.0493.0139-12.5251-3.3864-.8009-8.9801H20.342l1.5753 17.6794 23.037 6.403.052-.014V95.0092z" fill="#EBEBEB"/><path d="M58.8645 76.5494l-1.3542 15.0798-12.5433 3.3897v11.7151l23.0554-6.398.1692-1.902 1.9564-21.8846H58.8645z" fill="#fff"/><path d="M44.9778 42.9758V54.2362H17.8126l-.2256-2.5309-.5125-5.7084-.2688-3.0211h28.1721zM44.9386 65.7678v11.2601H32.5721l-.2253-2.5306-.5128-5.7084-.2688-3.0211h13.3734z" fill="#EBEBEB"/></g><defs><clipPath id="clip0"><path fill="#fff" d="M0 0h90v127H0z"/></clipPath></defs></svg>