<svg width="107" height="153" viewBox="0 0 107 153" fill="none" xmlns="http://www.w3.org/2000/svg"><path d="M52.9525 122.378c-9.1753-.114-17.4172-2.159-24.7257-6.136-7.2258-3.975-12.9039-9.419-17.0343-16.3324-4.0478-6.9122-6.01826-14.6666-5.91143-23.2633.10682-8.5967 2.26937-16.2997 6.48763-23.1092 4.3009-6.8084 10.1126-12.1099 17.435-15.9045 7.405-3.7937 15.6952-5.6334 24.8705-5.5194 9.1753.114 17.3758 2.1587 24.6017 6.1341 7.3085 3.9765 12.9866 9.4208 17.0343 16.333 4.1305 6.9132 6.1418 14.6681 6.0358 23.2648-.107 8.5966-2.3111 16.2992-6.612 23.1079-4.2183 6.809-10.03 12.111-17.435 15.904-7.3224 3.795-15.5712 5.635-24.7465 5.521zm.2527-20.334c4.381.054 8.3615-.93 11.9416-2.9521 3.5801-2.0223 6.4265-4.8805 8.5392-8.5745 2.1137-3.7767 3.2009-8.1035 3.2615-12.9805.0606-4.877-.9192-9.1881-2.9395-12.9335-2.0192-3.8281-4.7932-6.7974-8.3219-8.9081-3.5287-2.1107-7.4836-3.1933-11.8646-3.2477-4.381-.0544-8.3615.9295-11.9416 2.9518-3.5801 2.0224-6.427 4.9219-8.5407 8.6986-2.1128 3.694-3.1994 7.9795-3.26 12.8565-.0607 4.8769.9187 9.2294 2.9379 13.0575 2.0203 3.7454 4.7948 6.6734 8.3235 8.7841 3.5287 2.1109 7.4836 3.1929 11.8646 3.2479z" fill="#fff"/></svg>