<svg width="82" height="44" viewBox="0 0 82 44" fill="none" xmlns="http://www.w3.org/2000/svg"><path d="M19.8504 21.716c1.152.672 2.04 1.5 2.664 2.484.624.984.936 2.112.936 3.384 0 1.584-.456 2.976-1.368 4.176-.912 1.2-2.196 2.124-3.852 2.772-1.656.648-3.564.972-5.724.972s-4.06798-.324-5.72398-.972c-1.656-.648-2.94-1.572-3.852-2.772-.912-1.2-1.368-2.592-1.368-4.176 0-1.272.312-2.4.936-3.384.624-.984 1.512-1.812 2.664-2.484-.864-.6-1.536-1.332-2.016-2.196-.456-.864-.684-1.824-.684-2.88 0-1.464.42-2.748 1.26-3.852.84-1.128 2.016-1.992 3.528-2.592 1.536-.6 3.28798-.9 5.25598-.9s3.708.3 5.22.9c1.536.6 2.724 1.464 3.564 2.592.84 1.104 1.26 2.388 1.26 3.852 0 1.056-.24 2.016-.72 2.88-.456.864-1.116 1.596-1.98 2.196zm-7.344-7.416c-.888 0-1.608.24-2.16.72-.55198.456-.82798 1.104-.82798 1.944 0 .816.264 1.464.79198 1.944.552.456 1.284.684 2.196.684.912 0 1.644-.228 2.196-.684.552-.48.828-1.128.828-1.944 0-.84-.276-1.488-.828-1.944-.552-.48-1.284-.72-2.196-.72zm0 16.2c1.152 0 2.064-.276 2.736-.828.696-.576 1.044-1.344 1.044-2.304 0-.96-.348-1.716-1.044-2.268-.672-.576-1.584-.864-2.736-.864-1.152 0-2.076.288-2.77198.864-.672.552-1.008 1.308-1.008 2.268 0 .96.336 1.728 1.008 2.304.69598.552 1.61998.828 2.77198.828zm24.4061 5.004c-2.16 0-4.08-.516-5.76-1.548-1.68-1.032-3-2.532-3.96-4.5-.936-1.992-1.404-4.344-1.404-7.056 0-2.712.468-5.052 1.404-7.02.96-1.992 2.28-3.504 3.96-4.536 1.68-1.032 3.6-1.548 5.76-1.548 2.136 0 4.044.516 5.724 1.548 1.68 1.032 2.988 2.544 3.924 4.536.96 1.968 1.44 4.308 1.44 7.02 0 2.712-.48 5.064-1.44 7.056-.936 1.968-2.244 3.468-3.924 4.5-1.68 1.032-3.588 1.548-5.724 1.548zm0-5.832c1.2 0 2.148-.576 2.844-1.728.72-1.176 1.08-3.024 1.08-5.544 0-2.52-.36-4.356-1.08-5.508-.696-1.176-1.644-1.764-2.844-1.764-1.224 0-2.196.588-2.916 1.764-.696 1.152-1.044 2.988-1.044 5.508s.348 4.368 1.044 5.544c.72 1.152 1.692 1.728 2.916 1.728zm19.5325-6.228c-1.896 0-3.444-.624-4.644-1.872-1.2-1.248-1.8-2.952-1.8-5.112 0-1.416.276-2.652.828-3.708.552-1.056 1.308-1.86 2.268-2.412.984-.576 2.1-.864 3.348-.864 1.92 0 3.48.636 4.68 1.908 1.2 1.248 1.8 2.94 1.8 5.076 0 2.16-.6 3.864-1.8 5.112-1.2 1.248-2.76 1.872-4.68 1.872zM71.349 9.8h5.184L59.325 35h-5.184L71.349 9.8zM56.445 20.024c.648 0 1.164-.288 1.548-.864.384-.576.576-1.476.576-2.7 0-1.224-.192-2.124-.576-2.7-.384-.576-.9-.864-1.548-.864-.624 0-1.14.3-1.548.9-.384.576-.576 1.464-.576 2.664 0 1.2.192 2.1.576 2.7.408.576.924.864 1.548.864zm17.784 15.3c-1.92 0-3.48-.624-4.68-1.872-1.176-1.248-1.764-2.952-1.764-5.112 0-2.136.6-3.828 1.8-5.076 1.2-1.272 2.748-1.908 4.644-1.908 1.92 0 3.48.636 4.68 1.908 1.2 1.248 1.8 2.94 1.8 5.076 0 2.16-.6 3.864-1.8 5.112-1.2 1.248-2.76 1.872-4.68 1.872zm0-3.42c.648 0 1.164-.288 1.548-.864.384-.576.576-1.476.576-2.7 0-1.224-.192-2.124-.576-2.7-.384-.576-.9-.864-1.548-.864s-1.164.288-1.548.864c-.384.576-.576 1.476-.576 2.7 0 1.224.192 2.124.576 2.7.384.576.9.864 1.548.864z" fill="#000"/></svg>