<svg width="200" height="29" viewBox="0 0 200 29" fill="none" xmlns="http://www.w3.org/2000/svg"><path d="M2.6935 6.2h7.344c1.792 0 3.384.352 4.776 1.056 1.392.688 2.472 1.672 3.24 2.952.768 1.264 1.152 2.728 1.152 4.392 0 1.664-.384 3.136-1.152 4.416-.768 1.264-1.848 2.248-3.24 2.952-1.392.688-2.984 1.032-4.776 1.032h-7.344V6.2zm7.2 14.16c1.232 0 2.312-.232 3.24-.696.944-.48 1.664-1.152 2.16-2.016.512-.88.768-1.896.768-3.048 0-1.152-.256-2.16-.768-3.024-.496-.88-1.216-1.552-2.16-2.016-.928-.48-2.008-.72-3.24-.72h-4.08v11.52h4.08zm25.2281.024V23h-12.6V6.2h12.264v2.616h-9.144v4.368h8.112v2.568h-8.112v4.632h9.48zm8.6862 2.856c-1.296 0-2.552-.184-3.768-.552-1.2-.368-2.152-.856-2.856-1.464l1.08-2.424c.688.544 1.528.992 2.52 1.344 1.008.336 2.016.504 3.024.504 1.248 0 2.176-.2 2.784-.6.624-.4.936-.928.936-1.584 0-.48-.176-.872-.528-1.176-.336-.32-.768-.568-1.296-.744-.528-.176-1.248-.376-2.16-.6-1.28-.304-2.32-.608-3.12-.912-.784-.304-1.464-.776-2.04-1.416-.56-.656-.84-1.536-.84-2.64 0-.928.248-1.768.744-2.52.512-.768 1.272-1.376 2.28-1.824 1.024-.448 2.272-.672 3.744-.672 1.024 0 2.032.128 3.024.384s1.848.624 2.5679 1.104l-.9839 2.424c-.736-.432-1.504-.76-2.304-.984-.8-.224-1.576-.336-2.328-.336-1.232 0-2.152.208-2.76.624-.592.416-.888.968-.888 1.656 0 .48.168.872.504 1.176.352.304.792.544 1.32.72.528.176 1.248.376 2.16.6 1.248.288 2.272.592 3.072.912.8.304 1.48.776 2.04 1.416.576.64.864 1.504.864 2.592 0 .928-.256 1.768-.768 2.52-.496.752-1.256 1.352-2.28 1.8-1.024.448-2.272.672-3.744.672zm17.6617 0c-1.696 0-3.232-.368-4.608-1.104-1.36-.752-2.432-1.784-3.216-3.096-.768-1.312-1.152-2.792-1.152-4.44 0-1.648.392-3.128 1.176-4.44.784-1.312 1.856-2.336 3.216-3.072 1.376-.752 2.912-1.128 4.608-1.128 1.376 0 2.632.24 3.768.72 1.136.48 2.096 1.176 2.88 2.088l-2.016 1.896c-1.216-1.312-2.712-1.968-4.488-1.968-1.152 0-2.184.256-3.096.768-.912.496-1.624 1.192-2.136 2.088-.512.896-.768 1.912-.768 3.048 0 1.136.256 2.152.768 3.048.512.896 1.224 1.6 2.136 2.112.912.496 1.944.744 3.096.744 1.776 0 3.272-.664 4.488-1.992l2.016 1.92c-.784.912-1.752 1.608-2.904 2.088-1.136.48-2.392.72-3.768.72zm20.2059-4.128h-8.4L71.6194 23h-3.216l7.56-16.8h3.072l7.584 16.8h-3.264l-1.68-3.888zm-1.032-2.448l-3.168-7.344-3.144 7.344h6.312zM99.748 23l-3.432-4.92c-.144.016-.36.024-.648.024h-3.792V23h-3.12V6.2h6.912c1.456 0 2.72.24 3.792.72 1.088.48 1.92 1.168 2.496 2.064.576.896.864 1.96.864 3.192 0 1.264-.312 2.352-.936 3.264-.608.912-1.488 1.592-2.64 2.04l3.864 5.52h-3.36zm-.072-10.824c0-1.072-.352-1.896-1.056-2.472-.704-.576-1.736-.864-3.096-.864h-3.648v6.696h3.648c1.36 0 2.392-.288 3.096-.864.704-.592 1.056-1.424 1.056-2.496zm18.107 2.232h2.952v6.696c-.864.688-1.872 1.216-3.024 1.584-1.152.368-2.336.552-3.552.552-1.712 0-3.256-.368-4.632-1.104-1.376-.752-2.456-1.784-3.24-3.096-.784-1.312-1.176-2.792-1.176-4.44 0-1.648.392-3.128 1.176-4.44.784-1.312 1.864-2.336 3.24-3.072 1.392-.752 2.952-1.128 4.68-1.128 1.408 0 2.688.232 3.84.696 1.152.464 2.12 1.144 2.904 2.04l-1.968 1.92c-1.28-1.28-2.824-1.92-4.632-1.92-1.184 0-2.24.248-3.168.744-.912.496-1.632 1.192-2.16 2.088-.512.896-.768 1.92-.768 3.072 0 1.12.256 2.128.768 3.024.528.896 1.248 1.6 2.16 2.112.928.512 1.976.768 3.144.768 1.312 0 2.464-.288 3.456-.864v-5.232zm17.963 4.704h-8.4L125.69 23h-3.216l7.56-16.8h3.072L140.69 23h-3.264l-1.68-3.888zm-1.032-2.448l-3.168-7.344-3.144 7.344h6.312zM153.818 23l-3.432-4.92c-.144.016-.36.024-.648.024h-3.792V23h-3.12V6.2h6.912c1.456 0 2.72.24 3.792.72 1.088.48 1.92 1.168 2.496 2.064.576.896.864 1.96.864 3.192 0 1.264-.312 2.352-.936 3.264-.608.912-1.488 1.592-2.64 2.04l3.864 5.52h-3.36zm-.072-10.824c0-1.072-.352-1.896-1.056-2.472-.704-.576-1.736-.864-3.096-.864h-3.648v6.696h3.648c1.36 0 2.392-.288 3.096-.864.704-.592 1.056-1.424 1.056-2.496zM174.79 23.24c-1.696 0-3.232-.368-4.608-1.104-1.36-.752-2.432-1.784-3.216-3.096-.768-1.312-1.152-2.792-1.152-4.44 0-1.648.392-3.128 1.176-4.44.784-1.312 1.856-2.336 3.216-3.072 1.376-.752 2.912-1.128 4.608-1.128 1.376 0 2.632.24 3.768.72 1.136.48 2.096 1.176 2.88 2.088l-2.016 1.896c-1.216-1.312-2.712-1.968-4.488-1.968-1.152 0-2.184.256-3.096.768-.912.496-1.624 1.192-2.136 2.088-.512.896-.768 1.912-.768 3.048 0 1.136.256 2.152.768 3.048.512.896 1.224 1.6 2.136 2.112.912.496 1.944.744 3.096.744 1.776 0 3.272-.664 4.488-1.992l2.016 1.92c-.784.912-1.752 1.608-2.904 2.088-1.136.48-2.392.72-3.768.72zM199.694 6.2l-7.32 16.8h-3.072l-7.344-16.8h3.384l5.592 12.96 5.64-12.96h3.12z" fill="#fff"/></svg>