<svg width="439" height="72" viewBox="0 0 439 72" fill="none" xmlns="http://www.w3.org/2000/svg"><path d="M24.6975 14.672h1.176v6.288c-.736.704-1.632 1.24-2.688 1.608-1.04.368-2.144.552-3.312.552-1.664 0-3.168-.368-4.512-1.104-1.328-.736-2.376-1.752-3.144-3.048-.752-1.296-1.128-2.752-1.128-4.368 0-1.616.376-3.072 1.128-4.368.768-1.296 1.816-2.312 3.144-3.048 1.344-.736 2.856-1.104 4.536-1.104 1.232 0 2.36.2 3.384.6 1.04.384 1.928.952 2.664 1.704l-.768.816c-.704-.704-1.496-1.208-2.376-1.512-.864-.32-1.824-.48-2.88-.48-1.44 0-2.744.32-3.912.96-1.152.64-2.056 1.528-2.712 2.664-.656 1.12-.984 2.376-.984 3.768 0 1.376.328 2.632.984 3.768.672 1.12 1.584 2.008 2.736 2.664 1.152.64 2.448.96 3.888.96 1.92 0 3.512-.512 4.776-1.536v-5.784zm7.3305-1.464c.384-.912.984-1.608 1.8-2.088.816-.496 1.808-.744 2.976-.744v1.176l-.288-.024c-1.392 0-2.48.44-3.264 1.32-.784.864-1.176 2.072-1.176 3.624V23h-1.2V10.472h1.152v2.736zm12.3064-2.832c1.552 0 2.744.4 3.576 1.2.832.784 1.248 1.944 1.248 3.48V23h-1.152v-2.232c-.4.736-.984 1.312-1.752 1.728-.768.4-1.688.6-2.76.6-1.392 0-2.496-.328-3.312-.984-.8-.656-1.2-1.52-1.2-2.592 0-1.04.368-1.88 1.104-2.52.752-.656 1.944-.984 3.576-.984h4.296v-1.008c0-1.168-.32-2.056-.96-2.664-.624-.608-1.544-.912-2.76-.912-.832 0-1.632.144-2.4.432-.752.288-1.392.672-1.92 1.152l-.6-.864c.624-.56 1.376-.992 2.256-1.296.88-.32 1.8-.48 2.76-.48zm-.672 11.736c1.04 0 1.92-.24 2.64-.72.736-.48 1.288-1.176 1.656-2.088v-2.352h-4.272c-1.232 0-2.128.224-2.688.672-.544.448-.816 1.064-.816 1.848 0 .816.304 1.464.912 1.944.608.464 1.464.696 2.568.696zm16.7282-11.736c1.168 0 2.224.272 3.168.816.944.544 1.68 1.296 2.208 2.256.544.96.816 2.056.816 3.288 0 1.232-.272 2.336-.816 3.312-.528.96-1.264 1.712-2.208 2.256-.944.528-2 .792-3.168.792-1.104 0-2.104-.256-3-.768-.896-.528-1.592-1.256-2.088-2.184v7.512h-1.2V10.472h1.152v2.952c.496-.96 1.192-1.704 2.088-2.232.912-.544 1.928-.816 3.048-.816zm-.072 11.64c.96 0 1.824-.224 2.592-.672.768-.448 1.368-1.072 1.8-1.872.448-.8.672-1.712.672-2.736 0-1.024-.224-1.936-.672-2.736-.432-.8-1.032-1.424-1.8-1.872-.768-.448-1.632-.672-2.592-.672-.96 0-1.824.224-2.592.672-.752.448-1.352 1.072-1.8 1.872-.432.8-.648 1.712-.648 2.736 0 1.024.216 1.936.648 2.736.448.8 1.048 1.424 1.8 1.872.768.448 1.632.672 2.592.672zm16.0993-11.64c1.568 0 2.808.456 3.72 1.368.912.912 1.368 2.224 1.368 3.936V23h-1.2v-7.224c0-1.408-.36-2.48-1.08-3.216-.704-.736-1.696-1.104-2.976-1.104-1.472 0-2.632.44-3.48 1.32-.848.88-1.272 2.064-1.272 3.552V23h-1.2V5.192h1.2v7.896c.432-.864 1.072-1.528 1.92-1.992.848-.48 1.848-.72 3-.72zm10.0284.096h1.2V23h-1.2V10.472zm.6-3.048c-.272 0-.504-.088-.696-.264-.192-.192-.288-.424-.288-.696 0-.272.096-.504.288-.696.192-.192.424-.288.696-.288.272 0 .504.096.696.288.192.176.288.4.288.672s-.096.504-.288.696c-.192.192-.424.288-.696.288zm10.6259 15.672c-1.216 0-2.304-.272-3.264-.816-.96-.544-1.712-1.296-2.256-2.256-.544-.976-.816-2.072-.816-3.288 0-1.232.272-2.328.816-3.288.544-.976 1.296-1.728 2.256-2.256.96-.544 2.048-.816 3.264-.816 1.008 0 1.92.2 2.7358.6.832.384 1.504.952 2.016 1.704l-.888.648c-.448-.624-1.008-1.088-1.6798-1.392-.656-.32-1.384-.48-2.184-.48-.976 0-1.856.224-2.64.672-.768.432-1.376 1.048-1.824 1.848-.432.8-.648 1.72-.648 2.76 0 1.04.216 1.96.648 2.76.448.8 1.056 1.424 1.824 1.872.784.432 1.664.648 2.64.648.8 0 1.528-.152 2.184-.456.6718-.32 1.2318-.792 1.6798-1.416l.888.648c-.512.752-1.184 1.328-2.016 1.728-.8158.384-1.7278.576-2.7358.576zM112.565 6.2h6.648c1.744 0 3.288.36 4.632 1.08 1.36.72 2.416 1.72 3.168 3 .752 1.264 1.128 2.704 1.128 4.32s-.376 3.064-1.128 4.344c-.752 1.264-1.808 2.256-3.168 2.976-1.344.72-2.888 1.08-4.632 1.08h-6.648V6.2zm6.552 15.696c1.552 0 2.92-.304 4.104-.912 1.184-.624 2.096-1.488 2.736-2.592.64-1.104.96-2.368.96-3.792s-.32-2.688-.96-3.792c-.64-1.104-1.552-1.96-2.736-2.568-1.184-.624-2.552-.936-4.104-.936h-5.328v14.592h5.328zm23.476-4.872h-10.776c.032.976.28 1.848.744 2.616.464.752 1.088 1.336 1.872 1.752.8.416 1.696.624 2.688.624.816 0 1.568-.144 2.256-.432.704-.304 1.288-.744 1.752-1.32l.696.792c-.544.656-1.232 1.16-2.064 1.512-.816.352-1.704.528-2.664.528-1.248 0-2.36-.272-3.336-.816-.976-.544-1.744-1.296-2.304-2.256-.544-.96-.816-2.056-.816-3.288 0-1.216.256-2.304.768-3.264.528-.976 1.248-1.736 2.16-2.28.912-.544 1.936-.816 3.072-.816 1.136 0 2.152.272 3.048.816.912.528 1.624 1.272 2.136 2.232.528.96.792 2.048.792 3.264l-.024.336zm-5.952-5.592c-.88 0-1.672.2-2.376.6-.704.384-1.272.936-1.704 1.656-.416.704-.656 1.504-.72 2.4h9.6c-.048-.896-.288-1.696-.72-2.4s-1-1.256-1.704-1.656c-.704-.4-1.496-.6-2.376-.6zm12.856 11.664c-1.008 0-1.968-.152-2.88-.456-.912-.304-1.624-.688-2.136-1.152l.552-.96c.512.432 1.168.792 1.968 1.08.816.288 1.664.432 2.544.432 1.264 0 2.192-.208 2.784-.624.608-.416.912-.992.912-1.728 0-.528-.168-.944-.504-1.248-.32-.304-.72-.528-1.2-.672-.48-.144-1.144-.296-1.992-.456-.992-.176-1.792-.368-2.4-.576-.608-.208-1.128-.544-1.56-1.008-.432-.464-.648-1.104-.648-1.92 0-.992.408-1.808 1.224-2.448.832-.656 2.008-.984 3.528-.984.8 0 1.592.112 2.376.336.784.224 1.424.52 1.92.888l-.552.96c-.512-.368-1.096-.648-1.752-.84-.656-.192-1.328-.288-2.016-.288-1.168 0-2.048.216-2.64.648-.592.432-.888 1-.888 1.704 0 .56.168 1 .504 1.32.336.304.744.536 1.224.696.496.144 1.184.304 2.064.48.976.176 1.76.368 2.352.576.608.192 1.12.512 1.536.96.416.448.624 1.064.624 1.848 0 1.04-.432 1.872-1.296 2.496-.864.624-2.08.936-3.648.936zm8.293-12.624h1.2V23h-1.2V10.472zm.6-3.048c-.272 0-.504-.088-.696-.264-.192-.192-.288-.424-.288-.696 0-.272.096-.504.288-.696.192-.192.424-.288.696-.288.272 0 .504.096.696.288.192.176.288.4.288.672s-.096.504-.288.696c-.192.192-.424.288-.696.288zm16.938 3.048v11.184c0 2.08-.504 3.616-1.512 4.608-1.008.992-2.528 1.488-4.56 1.488-1.152 0-2.24-.176-3.264-.528-1.024-.352-1.848-.84-2.472-1.464l.648-.912c.624.576 1.376 1.024 2.256 1.344.88.32 1.816.48 2.808.48 1.664 0 2.896-.4 3.696-1.2.8-.784 1.2-2.008 1.2-3.672v-2.112c-.512.912-1.224 1.616-2.136 2.112-.912.496-1.936.744-3.072.744-1.168 0-2.232-.256-3.192-.768-.944-.528-1.688-1.256-2.232-2.184-.544-.928-.816-1.976-.816-3.144 0-1.168.272-2.216.816-3.144.544-.928 1.288-1.648 2.232-2.16.96-.512 2.024-.768 3.192-.768 1.152 0 2.192.256 3.12.768.928.512 1.64 1.232 2.136 2.16v-2.832h1.152zm-6.312 10.992c.976 0 1.856-.208 2.64-.624.784-.432 1.392-1.024 1.824-1.776.448-.768.672-1.64.672-2.616 0-.976-.224-1.84-.672-2.592-.432-.752-1.04-1.336-1.824-1.752-.784-.432-1.664-.648-2.64-.648-.976 0-1.856.216-2.64.648-.768.416-1.376 1-1.824 1.752-.432.752-.648 1.616-.648 2.592s.216 1.848.648 2.616c.448.752 1.056 1.344 1.824 1.776.784.416 1.664.624 2.64.624zm17.511-11.088c1.568 0 2.808.456 3.72 1.368.912.912 1.368 2.224 1.368 3.936V23h-1.2v-7.224c0-1.408-.36-2.48-1.08-3.216-.704-.736-1.696-1.104-2.976-1.104-1.472 0-2.632.44-3.48 1.32-.848.88-1.272 2.064-1.272 3.552V23h-1.2V10.472h1.152v2.712c.432-.88 1.072-1.568 1.92-2.064.864-.496 1.88-.744 3.048-.744zm20.636 6.648h-10.776c.032.976.28 1.848.744 2.616.464.752 1.088 1.336 1.872 1.752.8.416 1.696.624 2.688.624.816 0 1.568-.144 2.256-.432.704-.304 1.288-.744 1.752-1.32l.696.792c-.544.656-1.232 1.16-2.064 1.512-.816.352-1.704.528-2.664.528-1.248 0-2.36-.272-3.336-.816-.976-.544-1.744-1.296-2.304-2.256-.544-.96-.816-2.056-.816-3.288 0-1.216.256-2.304.768-3.264.528-.976 1.248-1.736 2.16-2.28.912-.544 1.936-.816 3.072-.816 1.136 0 2.152.272 3.048.816.912.528 1.624 1.272 2.136 2.232.528.96.792 2.048.792 3.264l-.024.336zm-5.952-5.592c-.88 0-1.672.2-2.376.6-.704.384-1.272.936-1.704 1.656-.416.704-.656 1.504-.72 2.4h9.6c-.048-.896-.288-1.696-.72-2.4s-1-1.256-1.704-1.656c-.704-.4-1.496-.6-2.376-.6zm10.84 1.776c.384-.912.984-1.608 1.8-2.088.816-.496 1.808-.744 2.976-.744v1.176l-.288-.024c-1.392 0-2.48.44-3.264 1.32-.784.864-1.176 2.072-1.176 3.624V23h-1.2V10.472h1.152v2.736zm26.65 10.032l-2.424-2.544c-.688.8-1.504 1.408-2.448 1.824-.944.4-1.992.6-3.144.6-1.056 0-2-.176-2.832-.528-.832-.352-1.48-.848-1.944-1.488-.464-.64-.696-1.368-.696-2.184 0-.976.328-1.864.984-2.664.656-.816 1.776-1.688 3.36-2.616l-.024-.048c-.832-.864-1.4-1.584-1.704-2.16-.304-.592-.456-1.224-.456-1.896 0-1.04.36-1.872 1.08-2.496.72-.624 1.688-.936 2.904-.936 1.136 0 2.032.288 2.688.864.672.56 1.008 1.336 1.008 2.328 0 .832-.288 1.584-.864 2.256-.56.656-1.552 1.4-2.976 2.232l4.968 5.256c.544-.96.944-2.096 1.2-3.408l.984.312c-.32 1.552-.8 2.84-1.44 3.864l2.496 2.64-.72.792zm-10.2-13.704c0 .528.136 1.04.408 1.536.272.48.808 1.144 1.608 1.992 1.328-.768 2.24-1.416 2.736-1.944.496-.544.744-1.144.744-1.8 0-.704-.232-1.256-.696-1.656-.464-.416-1.112-.624-1.944-.624-.896 0-1.6.232-2.112.696-.496.448-.744 1.048-.744 1.8zm2.232 12.576c2.048 0 3.656-.728 4.824-2.184l-5.304-5.592c-1.472.864-2.488 1.624-3.048 2.28-.544.656-.816 1.392-.816 2.208 0 .976.4 1.768 1.2 2.376.816.608 1.864.912 3.144.912zM271.247 6.2L265.559 23h-1.296l-5.208-15.072L253.823 23h-1.296l-5.712-16.8h1.296l5.112 15.12 5.256-15.12h1.176l5.232 15.144 5.16-15.144h1.2zm12.768 10.824h-10.776c.032.976.28 1.848.744 2.616.464.752 1.088 1.336 1.872 1.752.8.416 1.696.624 2.688.624.816 0 1.568-.144 2.256-.432.704-.304 1.288-.744 1.752-1.32l.696.792c-.544.656-1.232 1.16-2.064 1.512-.816.352-1.704.528-2.664.528-1.248 0-2.36-.272-3.336-.816-.976-.544-1.744-1.296-2.304-2.256-.544-.96-.816-2.056-.816-3.288 0-1.216.256-2.304.768-3.264.528-.976 1.248-1.736 2.16-2.28.912-.544 1.936-.816 3.072-.816 1.136 0 2.152.272 3.048.816.912.528 1.624 1.272 2.136 2.232.528.96.792 2.048.792 3.264l-.024.336zm-5.952-5.592c-.88 0-1.672.2-2.376.6-.704.384-1.272.936-1.704 1.656-.416.704-.656 1.504-.72 2.4h9.6c-.048-.896-.288-1.696-.72-2.4s-1-1.256-1.704-1.656c-.704-.4-1.496-.6-2.376-.6zm15.976-1.056c1.168 0 2.224.272 3.168.816.944.528 1.68 1.28 2.208 2.256.544.96.816 2.056.816 3.288 0 1.232-.272 2.328-.816 3.288-.528.96-1.264 1.712-2.208 2.256-.944.544-2 .816-3.168.816-1.12 0-2.136-.264-3.048-.792-.896-.544-1.592-1.296-2.088-2.256V23h-1.152V5.192h1.2v8.136c.496-.928 1.192-1.648 2.088-2.16.896-.528 1.896-.792 3-.792zm-.072 11.64c.96 0 1.824-.224 2.592-.672.768-.448 1.368-1.072 1.8-1.872.448-.8.672-1.712.672-2.736 0-1.024-.224-1.936-.672-2.736-.432-.8-1.032-1.424-1.8-1.872-.768-.448-1.632-.672-2.592-.672-.96 0-1.824.224-2.592.672-.752.448-1.352 1.072-1.8 1.872-.432.8-.648 1.712-.648 2.736 0 1.024.216 1.936.648 2.736.448.8 1.048 1.424 1.8 1.872.768.448 1.632.672 2.592.672zM310.494 6.2h6.648c1.744 0 3.288.36 4.632 1.08 1.36.72 2.416 1.72 3.168 3 .752 1.264 1.128 2.704 1.128 4.32s-.376 3.064-1.128 4.344c-.752 1.264-1.808 2.256-3.168 2.976-1.344.72-2.888 1.08-4.632 1.08h-6.648V6.2zm6.552 15.696c1.552 0 2.92-.304 4.104-.912 1.184-.624 2.096-1.488 2.736-2.592.64-1.104.96-2.368.96-3.792s-.32-2.688-.96-3.792c-.64-1.104-1.552-1.96-2.736-2.568-1.184-.624-2.552-.936-4.104-.936h-5.328v14.592h5.328zm23.477-4.872h-10.776c.032.976.28 1.848.744 2.616.464.752 1.088 1.336 1.872 1.752.8.416 1.696.624 2.688.624.816 0 1.568-.144 2.256-.432.704-.304 1.288-.744 1.752-1.32l.696.792c-.544.656-1.232 1.16-2.064 1.512-.816.352-1.704.528-2.664.528-1.248 0-2.36-.272-3.336-.816-.976-.544-1.744-1.296-2.304-2.256-.544-.96-.816-2.056-.816-3.288 0-1.216.256-2.304.768-3.264.528-.976 1.248-1.736 2.16-2.28.912-.544 1.936-.816 3.072-.816 1.136 0 2.152.272 3.048.816.912.528 1.624 1.272 2.136 2.232.528.96.792 2.048.792 3.264l-.024.336zm-5.952-5.592c-.88 0-1.672.2-2.376.6-.704.384-1.272.936-1.704 1.656-.416.704-.656 1.504-.72 2.4h9.6c-.048-.896-.288-1.696-.72-2.4s-1-1.256-1.704-1.656c-.704-.4-1.496-.6-2.376-.6zm19.509-.96L348.416 23h-1.224l-5.64-12.528h1.272l4.992 11.208 5.04-11.208h1.224zm12.857 6.552h-10.776c.032.976.28 1.848.744 2.616.464.752 1.088 1.336 1.872 1.752.8.416 1.696.624 2.688.624.816 0 1.568-.144 2.256-.432.704-.304 1.288-.744 1.752-1.32l.696.792c-.544.656-1.232 1.16-2.064 1.512-.816.352-1.704.528-2.664.528-1.248 0-2.36-.272-3.336-.816-.976-.544-1.744-1.296-2.304-2.256-.544-.96-.816-2.056-.816-3.288 0-1.216.256-2.304.768-3.264.528-.976 1.248-1.736 2.16-2.28.912-.544 1.936-.816 3.072-.816 1.136 0 2.152.272 3.048.816.912.528 1.624 1.272 2.136 2.232.528.96.792 2.048.792 3.264l-.024.336zm-5.952-5.592c-.88 0-1.672.2-2.376.6-.704.384-1.272.936-1.704 1.656-.416.704-.656 1.504-.72 2.4h9.6c-.048-.896-.288-1.696-.72-2.4s-1-1.256-1.704-1.656c-.704-.4-1.496-.6-2.376-.6zm9.688-6.24h1.2V23h-1.2V5.192zm11.154 17.904c-1.184 0-2.256-.272-3.216-.816-.944-.544-1.688-1.296-2.232-2.256-.544-.976-.816-2.072-.816-3.288 0-1.216.272-2.304.816-3.264.544-.976 1.288-1.736 2.232-2.28.96-.544 2.032-.816 3.216-.816 1.184 0 2.248.272 3.192.816.96.544 1.712 1.304 2.256 2.28.544.96.816 2.048.816 3.264 0 1.216-.272 2.312-.816 3.288-.544.96-1.296 1.712-2.256 2.256-.944.544-2.008.816-3.192.816zm0-1.08c.96 0 1.816-.224 2.568-.672.768-.448 1.368-1.072 1.8-1.872.448-.8.672-1.712.672-2.736 0-1.024-.224-1.936-.672-2.736-.432-.8-1.032-1.424-1.8-1.872-.752-.448-1.608-.672-2.568-.672s-1.824.224-2.592.672c-.752.448-1.352 1.072-1.8 1.872-.432.8-.648 1.712-.648 2.736 0 1.024.216 1.936.648 2.736.448.8 1.048 1.424 1.8 1.872.768.448 1.632.672 2.592.672zm16.275-11.64c1.168 0 2.224.272 3.168.816.944.544 1.68 1.296 2.208 2.256.544.96.816 2.056.816 3.288 0 1.232-.272 2.336-.816 3.312-.528.96-1.264 1.712-2.208 2.256-.944.528-2 .792-3.168.792-1.104 0-2.104-.256-3-.768-.896-.528-1.592-1.256-2.088-2.184v7.512h-1.2V10.472h1.152v2.952c.496-.96 1.192-1.704 2.088-2.232.912-.544 1.928-.816 3.048-.816zm-.072 11.64c.96 0 1.824-.224 2.592-.672.768-.448 1.368-1.072 1.8-1.872.448-.8.672-1.712.672-2.736 0-1.024-.224-1.936-.672-2.736-.432-.8-1.032-1.424-1.8-1.872-.768-.448-1.632-.672-2.592-.672-.96 0-1.824.224-2.592.672-.752.448-1.352 1.072-1.8 1.872-.432.8-.648 1.712-.648 2.736 0 1.024.216 1.936.648 2.736.448.8 1.048 1.424 1.8 1.872.768.448 1.632.672 2.592.672zm20.563-4.992h-10.776c.032.976.28 1.848.744 2.616.464.752 1.088 1.336 1.872 1.752.8.416 1.696.624 2.688.624.816 0 1.568-.144 2.256-.432.704-.304 1.288-.744 1.752-1.32l.696.792c-.544.656-1.232 1.16-2.064 1.512-.816.352-1.704.528-2.664.528-1.248 0-2.36-.272-3.336-.816-.976-.544-1.744-1.296-2.304-2.256-.544-.96-.816-2.056-.816-3.288 0-1.216.256-2.304.768-3.264.528-.976 1.248-1.736 2.16-2.28.912-.544 1.936-.816 3.072-.816 1.136 0 2.152.272 3.048.816.912.528 1.624 1.272 2.136 2.232.528.96.792 2.048.792 3.264l-.024.336zm-5.952-5.592c-.88 0-1.672.2-2.376.6-.704.384-1.272.936-1.704 1.656-.416.704-.656 1.504-.72 2.4h9.6c-.048-.896-.288-1.696-.72-2.4s-1-1.256-1.704-1.656c-.704-.4-1.496-.6-2.376-.6zm10.84 1.776c.384-.912.984-1.608 1.8-2.088.816-.496 1.808-.744 2.976-.744v1.176l-.288-.024c-1.392 0-2.48.44-3.264 1.32-.784.864-1.176 2.072-1.176 3.624V23h-1.2V10.472h1.152v2.736z" fill="#000"/></svg>