<svg width="1440" height="665" viewBox="0 0 1440 665" fill="none" xmlns="http://www.w3.org/2000/svg"><mask id="a" maskUnits="userSpaceOnUse" x="-148" y="26" width="1736" height="639"><path d="M154.457 48C58.4575-.000011 5.12413 46.6667-9.54254 76L-133.543 116v312c-24 0-32.8 27.2 124.00046 136C186.457 700 430.457 408 682.457 428c201.6 16 638.663 164 832.003 236 54.66-61.333 131.2-224.8 0-388S737.124 74.6667 430.457 76c-52 10.6667-180 20-276-28z" fill="#606060" stroke="#fff"/></mask><g mask="url(#a)"><path fill="#3BBBE8" d="M-3.5426-50h1440v838h-1440z"/></g><path d="M1436.46 148L-3.5426 0v174L1436.46 330V148z" fill="#3BBBE8"/></svg>