<svg width="79" height="29" viewBox="0 0 79 29" fill="none" xmlns="http://www.w3.org/2000/svg"><path d="M16.9596 6.2V23h-1.752v-7.752H4.69559V23h-1.776V6.2h1.776v7.488H15.2076V6.2h1.752zM29.787 23.144c-1.664 0-3.176-.368-4.536-1.104-1.344-.752-2.4-1.776-3.168-3.072-.752-1.296-1.128-2.752-1.128-4.368 0-1.616.376-3.072 1.128-4.368.768-1.296 1.824-2.312 3.168-3.048 1.36-.752 2.872-1.128 4.536-1.128 1.664 0 3.16.368 4.488 1.104 1.344.736 2.4 1.76 3.168 3.072.768 1.296 1.152 2.752 1.152 4.368 0 1.616-.384 3.08-1.152 4.392-.768 1.296-1.824 2.312-3.168 3.048-1.328.736-2.824 1.104-4.488 1.104zm0-1.584c1.328 0 2.528-.296 3.6-.888 1.072-.608 1.912-1.44 2.52-2.496.608-1.072.912-2.264.912-3.576 0-1.312-.304-2.496-.912-3.552-.608-1.072-1.448-1.904-2.52-2.496-1.072-.608-2.272-.912-3.6-.912-1.328 0-2.536.304-3.624.912-1.072.592-1.92 1.424-2.544 2.496-.608 1.056-.912 2.24-.912 3.552 0 1.312.304 2.504.912 3.576.624 1.056 1.472 1.888 2.544 2.496 1.088.592 2.296.888 3.624.888zM60.0238 6.2V23h-1.704V9.56l-6.6 11.304h-.84l-6.6-11.232V23h-1.704V6.2h1.464l7.296 12.456L58.5598 6.2h1.464zm17.3539 15.264V23h-11.88V6.2h11.52v1.536h-9.744v5.976h8.688v1.512h-8.688v6.24h10.104z" fill="#000"/></svg>