<svg width="429" height="51" viewBox="0 0 429 51" fill="none" xmlns="http://www.w3.org/2000/svg"><path d="M7.8979 41.168c-1.54 0-2.982-.364-4.326-1.092-1.344-.756-2.408-1.778-3.192002-3.066l.882002-.924c.812 1.232 1.778 2.17 2.898 2.814 1.148.644 2.408.966 3.78.966 2.072 0 3.598-.588 4.578-1.764 1.008-1.204 1.512-3.038 1.512-5.502V12.902h-10.92V11.6h12.348v21.042c0 5.684-2.52 8.526-7.56 8.526zm24.5027-22.134c2.604 0 4.592.672 5.964 2.016 1.4 1.344 2.1 3.29 2.1 5.838V41h-1.344v-4.368c-.7 1.4-1.75 2.506-3.15 3.318-1.372.784-3.024 1.176-4.956 1.176-2.436 0-4.354-.56-5.754-1.68-1.372-1.12-2.058-2.604-2.058-4.452 0-1.764.63-3.192 1.89-4.284 1.26-1.12 3.276-1.68 6.048-1.68h7.938v-2.142c0-2.156-.574-3.794-1.722-4.914-1.12-1.12-2.786-1.68-4.998-1.68-1.54 0-2.982.266-4.326.798-1.344.532-2.492 1.246-3.444 2.142l-.756-1.008c1.064-1.008 2.338-1.792 3.822-2.352 1.512-.56 3.094-.84 4.746-.84zm-1.302 20.916c3.92 0 6.58-1.75 7.98-5.25v-4.536h-7.938c-2.268 0-3.934.434-4.998 1.302-1.036.84-1.554 1.988-1.554 3.444 0 1.568.574 2.8 1.722 3.696 1.176.896 2.772 1.344 4.788 1.344zm28.7333-20.916c2.716 0 4.858.798 6.426 2.394 1.568 1.568 2.352 3.822 2.352 6.762V41h-1.386V28.274c0-2.576-.658-4.536-1.974-5.88-1.288-1.372-3.136-2.058-5.544-2.058-2.716 0-4.858.812-6.426 2.436-1.568 1.596-2.352 3.752-2.352 6.468V41h-1.386V19.202h1.344v5.334c.7-1.708 1.82-3.052 3.36-4.032 1.568-.98 3.43-1.47 5.586-1.47zM89.0156 11.6h1.428v28.098h17.2204V41H89.0156V11.6zM120.61 41.126c-2.016 0-3.85-.462-5.502-1.386-1.624-.952-2.898-2.268-3.822-3.948-.924-1.68-1.386-3.584-1.386-5.712 0-2.128.462-4.032 1.386-5.712.924-1.68 2.198-2.982 3.822-3.906 1.652-.952 3.486-1.428 5.502-1.428 2.044 0 3.878.476 5.502 1.428 1.624.924 2.898 2.226 3.822 3.906.924 1.68 1.386 3.584 1.386 5.712 0 2.128-.462 4.032-1.386 5.712-.924 1.68-2.198 2.996-3.822 3.948-1.624.924-3.458 1.386-5.502 1.386zm0-1.26c1.764 0 3.346-.406 4.746-1.218 1.428-.84 2.548-2.002 3.36-3.486.812-1.484 1.218-3.178 1.218-5.082s-.406-3.584-1.218-5.04c-.812-1.484-1.932-2.632-3.36-3.444-1.4-.84-2.982-1.26-4.746-1.26-1.764 0-3.36.42-4.788 1.26-1.4.812-2.506 1.96-3.318 3.444-.812 1.456-1.218 3.136-1.218 5.04s.406 3.598 1.218 5.082c.812 1.484 1.918 2.646 3.318 3.486 1.428.812 3.024 1.218 4.788 1.218zm3.738-29.106h2.268l-6.426 4.746h-1.68l5.838-4.746zm24.581 8.274c1.988 0 3.794.476 5.418 1.428 1.624.924 2.898 2.24 3.822 3.948.952 1.68 1.428 3.584 1.428 5.712 0 2.128-.476 4.032-1.428 5.712-.924 1.652-2.198 2.954-3.822 3.906-1.624.924-3.43 1.386-5.418 1.386-2.1 0-3.99-.532-5.67-1.596-1.652-1.064-2.884-2.52-3.696-4.368v13.986h-1.386V19.202h1.344v5.964c.812-1.904 2.044-3.402 3.696-4.494 1.68-1.092 3.584-1.638 5.712-1.638zm-.042 20.832c1.764 0 3.346-.406 4.746-1.218 1.428-.84 2.548-1.988 3.36-3.444.812-1.484 1.218-3.178 1.218-5.082s-.406-3.598-1.218-5.082c-.812-1.484-1.932-2.632-3.36-3.444-1.4-.84-2.982-1.26-4.746-1.26-1.764 0-3.36.42-4.788 1.26-1.4.812-2.506 1.96-3.318 3.444-.812 1.484-1.218 3.178-1.218 5.082s.406 3.598 1.218 5.082c.812 1.456 1.918 2.604 3.318 3.444 1.428.812 3.024 1.218 4.788 1.218zm35.525-9.576h-19.11c.028 1.848.462 3.5 1.302 4.956.84 1.456 1.988 2.59 3.444 3.402 1.484.812 3.136 1.218 4.956 1.218 1.484 0 2.856-.266 4.116-.798 1.26-.56 2.296-1.372 3.108-2.436l.882.924c-.98 1.148-2.17 2.03-3.57 2.646-1.4.616-2.912.924-4.536.924-2.128 0-4.032-.462-5.712-1.386-1.652-.952-2.954-2.268-3.906-3.948-.952-1.68-1.428-3.584-1.428-5.712 0-2.128.434-4.032 1.302-5.712.896-1.68 2.128-2.982 3.696-3.906 1.568-.952 3.318-1.428 5.25-1.428 1.904 0 3.626.462 5.166 1.386 1.568.924 2.8 2.212 3.696 3.864.896 1.652 1.344 3.528 1.344 5.628v.378zm-10.206-9.996c-1.624 0-3.094.378-4.41 1.134-1.316.756-2.366 1.82-3.15 3.192-.784 1.344-1.218 2.856-1.302 4.536h17.766c-.112-1.68-.574-3.192-1.386-4.536-.784-1.372-1.834-2.436-3.15-3.192-1.288-.756-2.744-1.134-4.368-1.134zm31.078 19.488V41h-17.01v-.966l14.952-19.614h-14.742v-1.218h16.59v.966L190.08 39.782h15.204zM246.697 11.6V41h-1.428V26.72h-20.622V41h-1.428V11.6h1.428v13.818h20.622V11.6h1.428zm18.288 29.526c-2.016 0-3.85-.462-5.502-1.386-1.624-.952-2.898-2.268-3.822-3.948-.924-1.68-1.386-3.584-1.386-5.712 0-2.128.462-4.032 1.386-5.712.924-1.68 2.198-2.982 3.822-3.906 1.652-.952 3.486-1.428 5.502-1.428 2.044 0 3.878.476 5.502 1.428 1.624.924 2.898 2.226 3.822 3.906.924 1.68 1.386 3.584 1.386 5.712 0 2.128-.462 4.032-1.386 5.712-.924 1.68-2.198 2.996-3.822 3.948-1.624.924-3.458 1.386-5.502 1.386zm0-1.26c1.764 0 3.346-.406 4.746-1.218 1.428-.84 2.548-2.002 3.36-3.486.812-1.484 1.218-3.178 1.218-5.082s-.406-3.584-1.218-5.04c-.812-1.484-1.932-2.632-3.36-3.444-1.4-.84-2.982-1.26-4.746-1.26-1.764 0-3.36.42-4.788 1.26-1.4.812-2.506 1.96-3.318 3.444-.812 1.456-1.218 3.136-1.218 5.04s.406 3.598 1.218 5.082c.812 1.484 1.918 2.646 3.318 3.486 1.428.812 3.024 1.218 4.788 1.218zm18.911-15.414c.644-1.736 1.68-3.066 3.108-3.99 1.456-.952 3.248-1.428 5.376-1.428v1.386h-.378c-2.52 0-4.494.798-5.922 2.394s-2.142 3.794-2.142 6.594V41h-1.386V19.202h1.344v5.25zm22.723 16.674c-2.072 0-3.934-.462-5.586-1.386-1.624-.952-2.912-2.268-3.864-3.948-.924-1.68-1.386-3.584-1.386-5.712 0-2.128.462-4.032 1.386-5.712.952-1.68 2.24-2.982 3.864-3.906 1.652-.952 3.514-1.428 5.586-1.428 1.652 0 3.178.322 4.578.966 1.428.616 2.59 1.54 3.486 2.772l-1.05.882c-.784-1.092-1.792-1.918-3.024-2.478-1.204-.56-2.534-.84-3.99-.84-1.792 0-3.416.42-4.872 1.26-1.428.812-2.548 1.96-3.36 3.444-.812 1.456-1.218 3.136-1.218 5.04s.406 3.598 1.218 5.082c.812 1.484 1.932 2.646 3.36 3.486 1.456.812 3.08 1.218 4.872 1.218 1.456 0 2.786-.28 3.99-.84 1.232-.56 2.24-1.386 3.024-2.478l1.05.84c-.896 1.232-2.058 2.17-3.486 2.814-1.4.616-2.926.924-4.578.924zm21.832-22.092c2.604 0 4.592.672 5.964 2.016 1.4 1.344 2.1 3.29 2.1 5.838V41h-1.344v-4.368c-.7 1.4-1.75 2.506-3.15 3.318-1.372.784-3.024 1.176-4.956 1.176-2.436 0-4.354-.56-5.754-1.68-1.372-1.12-2.058-2.604-2.058-4.452 0-1.764.63-3.192 1.89-4.284 1.26-1.12 3.276-1.68 6.048-1.68h7.938v-2.142c0-2.156-.574-3.794-1.722-4.914-1.12-1.12-2.786-1.68-4.998-1.68-1.54 0-2.982.266-4.326.798-1.344.532-2.492 1.246-3.444 2.142l-.756-1.008c1.064-1.008 2.338-1.792 3.822-2.352 1.512-.56 3.094-.84 4.746-.84zm-1.302 20.916c3.92 0 6.58-1.75 7.98-5.25v-4.536h-7.938c-2.268 0-3.934.434-4.998 1.302-1.036.84-1.554 1.988-1.554 3.444 0 1.568.574 2.8 1.722 3.696 1.176.896 2.772 1.344 4.788 1.344zm14.58 9.324c-.896 0-1.736-.126-2.52-.378s-1.428-.63-1.932-1.134l.714-1.008c.924.868 2.142 1.302 3.654 1.302 1.344 0 2.366-.406 3.066-1.218.728-.784 1.092-1.918 1.092-3.402V19.202h1.386v24.402c0 1.736-.476 3.108-1.428 4.116-.952 1.036-2.296 1.554-4.032 1.554zm4.746-35.784c-.364 0-.686-.126-.966-.378-.28-.28-.42-.602-.42-.966 0-.392.126-.714.378-.966.28-.28.616-.42 1.008-.42.364 0 .686.14.966.42.28.252.42.56.42.924s-.14.686-.42.966c-.28.28-.602.42-.966.42zm17.168 5.544c2.604 0 4.592.672 5.964 2.016 1.4 1.344 2.1 3.29 2.1 5.838V41h-1.344v-4.368c-.7 1.4-1.75 2.506-3.15 3.318-1.372.784-3.024 1.176-4.956 1.176-2.436 0-4.354-.56-5.754-1.68-1.372-1.12-2.058-2.604-2.058-4.452 0-1.764.63-3.192 1.89-4.284 1.26-1.12 3.276-1.68 6.048-1.68h7.938v-2.142c0-2.156-.574-3.794-1.722-4.914-1.12-1.12-2.786-1.68-4.998-1.68-1.54 0-2.982.266-4.326.798-1.344.532-2.492 1.246-3.444 2.142l-.756-1.008c1.064-1.008 2.338-1.792 3.822-2.352 1.512-.56 3.094-.84 4.746-.84zm-1.302 20.916c3.92 0 6.58-1.75 7.98-5.25v-4.536h-7.938c-2.268 0-3.934.434-4.998 1.302-1.036.84-1.554 1.988-1.554 3.444 0 1.568.574 2.8 1.722 3.696 1.176.896 2.772 1.344 4.788 1.344zm37.426-30.114V41h-1.344v-5.964c-.812 1.904-2.058 3.402-3.738 4.494-1.652 1.064-3.542 1.596-5.67 1.596-1.988 0-3.794-.462-5.418-1.386-1.624-.952-2.912-2.268-3.864-3.948-.924-1.68-1.386-3.584-1.386-5.712 0-2.128.462-4.032 1.386-5.712.952-1.68 2.24-2.982 3.864-3.906 1.624-.952 3.43-1.428 5.418-1.428 2.1 0 3.976.532 5.628 1.596 1.68 1.064 2.926 2.534 3.738 4.41V9.836h1.386zm-10.71 30.03c1.764 0 3.346-.406 4.746-1.218 1.428-.84 2.548-2.002 3.36-3.486.812-1.484 1.218-3.178 1.218-5.082s-.406-3.584-1.218-5.04c-.812-1.484-1.932-2.632-3.36-3.444-1.4-.84-2.982-1.26-4.746-1.26-1.764 0-3.36.42-4.788 1.26-1.4.812-2.506 1.96-3.318 3.444-.812 1.456-1.218 3.136-1.218 5.04s.406 3.598 1.218 5.082c.812 1.484 1.918 2.646 3.318 3.486 1.428.812 3.024 1.218 4.788 1.218zm27.168-20.832c2.604 0 4.592.672 5.964 2.016 1.4 1.344 2.1 3.29 2.1 5.838V41h-1.344v-4.368c-.7 1.4-1.75 2.506-3.15 3.318-1.372.784-3.024 1.176-4.956 1.176-2.436 0-4.354-.56-5.754-1.68-1.372-1.12-2.058-2.604-2.058-4.452 0-1.764.63-3.192 1.89-4.284 1.26-1.12 3.276-1.68 6.048-1.68h7.938v-2.142c0-2.156-.574-3.794-1.722-4.914-1.12-1.12-2.786-1.68-4.998-1.68-1.54 0-2.982.266-4.326.798-1.344.532-2.492 1.246-3.444 2.142l-.756-1.008c1.064-1.008 2.338-1.792 3.822-2.352 1.512-.56 3.094-.84 4.746-.84zm-1.302 20.916c3.92 0 6.58-1.75 7.98-5.25v-4.536h-7.938c-2.268 0-3.934.434-4.998 1.302-1.036.84-1.554 1.988-1.554 3.444 0 1.568.574 2.8 1.722 3.696 1.176.896 2.772 1.344 4.788 1.344z" fill="#000"/></svg>