<svg width="138" height="29" viewBox="0 0 138 29" fill="none" xmlns="http://www.w3.org/2000/svg"><path d="M19.2675 23l-.024-15.144-7.368 12.816h-.432L4.0515 7.904V23h-.792V6.2h.672l7.728 13.44 7.704-13.44h.672l.024 16.8h-.792zm11.6653-5.736V23h-.816v-5.736L23.3248 6.2h.888l6.336 10.272L36.8848 6.2h.864l-6.816 11.064zM69.0722 6.2L63.3362 23h-.816l-5.472-15.672L51.6002 23h-.84l-5.736-16.8h.864l5.304 15.624L56.6642 6.2h.792l5.448 15.648L68.2562 6.2h.816zm10.5926 16.896c-1.632 0-3.112-.368-4.44-1.104-1.312-.736-2.344-1.752-3.096-3.048-.752-1.296-1.128-2.744-1.128-4.344s.376-3.048 1.128-4.344c.752-1.296 1.784-2.312 3.096-3.048 1.328-.736 2.808-1.104 4.44-1.104 1.632 0 3.112.368 4.44 1.104 1.328.736 2.368 1.752 3.12 3.048.752 1.296 1.128 2.744 1.128 4.344s-.376 3.048-1.128 4.344c-.752 1.296-1.792 2.312-3.12 3.048-1.328.736-2.808 1.104-4.44 1.104zm0-.744c1.472 0 2.808-.336 4.008-1.008 1.2-.672 2.144-1.6 2.832-2.784.688-1.184 1.032-2.504 1.032-3.96s-.344-2.776-1.032-3.96c-.688-1.184-1.632-2.112-2.832-2.784-1.2-.672-2.536-1.008-4.008-1.008s-2.808.336-4.008 1.008c-1.184.672-2.12 1.6-2.808 2.784-.688 1.184-1.032 2.504-1.032 3.96s.344 2.776 1.032 3.96c.688 1.184 1.624 2.112 2.808 2.784 1.2.672 2.536 1.008 4.008 1.008zM104.599 23l-4.152-5.784c-.5442.096-1.1522.144-1.8242.144h-5.016V23h-.816V6.2h5.832c2.0962 0 3.7282.496 4.8962 1.488 1.184.976 1.776 2.336 1.776 4.08 0 1.344-.352 2.472-1.056 3.384-.688.896-1.68 1.52-2.976 1.872L105.559 23h-.96zm-5.9282-6.384c1.8722 0 3.3122-.416 4.3202-1.248 1.008-.848 1.512-2.048 1.512-3.6 0-1.536-.504-2.72-1.512-3.552-1.008-.848-2.448-1.272-4.3202-1.272h-5.064v9.672h5.064zm16.1702-2.184l-4.008 4.128V23h-.816V6.2h.816v11.304L121.825 6.2h1.008l-7.44 7.68 7.968 9.12h-1.008l-7.512-8.568zm15.807 8.664c-1.216 0-2.376-.216-3.48-.648-1.088-.432-1.928-.992-2.52-1.68l.432-.576c.56.64 1.336 1.168 2.328 1.584 1.008.4 2.08.6 3.216.6 1.68 0 2.944-.328 3.792-.984.864-.672 1.296-1.528 1.296-2.568 0-.8-.224-1.44-.672-1.92-.448-.496-1-.864-1.656-1.104-.656-.256-1.552-.52-2.688-.792-1.216-.304-2.192-.6-2.928-.888-.736-.288-1.36-.728-1.872-1.32-.512-.592-.768-1.384-.768-2.376 0-.784.208-1.504.624-2.16.416-.656 1.048-1.176 1.896-1.56.864-.4 1.936-.6 3.216-.6.912 0 1.808.136 2.688.408.896.272 1.656.648 2.28 1.128l-.36.648c-.656-.48-1.392-.84-2.208-1.08-.8-.256-1.592-.384-2.376-.384-1.632 0-2.872.344-3.72 1.032-.832.672-1.248 1.528-1.248 2.568 0 .816.224 1.472.672 1.968.464.48 1.024.848 1.68 1.104.672.256 1.568.52 2.688.792 1.216.304 2.192.6 2.928.888.736.272 1.352.704 1.848 1.296.512.576.768 1.352.768 2.328 0 .784-.216 1.504-.648 2.16-.416.656-1.064 1.176-1.944 1.56-.88.384-1.968.576-3.264.576z" fill="#000"/></svg>