<svg width="81" height="29" viewBox="0 0 81 29" fill="none" xmlns="http://www.w3.org/2000/svg"><path d="M7.62469 23.096c-1.216 0-2.376-.216-3.48-.648-1.088-.432-1.928-.992-2.52-1.68l.432-.576c.56.64 1.336 1.168 2.328 1.584 1.008.4 2.08.6 3.216.6 1.68 0 2.94401-.328 3.79201-.984.864-.672 1.296-1.528 1.296-2.568 0-.8-.224-1.44-.672-1.92-.448-.496-1-.864-1.656-1.104-.65601-.256-1.55201-.52-2.68801-.792-1.216-.304-2.192-.6-2.928-.888-.736-.288-1.36-.728-1.872-1.32-.512-.592-.768-1.384-.768-2.376 0-.784.208-1.504.624-2.16.416-.656 1.048-1.176 1.896-1.56.864-.4 1.936-.6 3.216-.6.912 0 1.808.136 2.68801.408.896.272 1.656.648 2.28 1.128l-.36.648c-.656-.48-1.392-.84-2.208-1.08-.80001-.256-1.59201-.384-2.37601-.384-1.632 0-2.872.344-3.72 1.032-.832.672-1.248 1.528-1.248 2.568 0 .816.224 1.472.672 1.968.464.48 1.024.848 1.68 1.104.672.256 1.568.52 2.688.792 1.216.304 2.19201.6 2.92801.888.736.272 1.352.704 1.848 1.296.512.576.768 1.352.768 2.328 0 .784-.216 1.504-.648 2.16-.416.656-1.064 1.176-1.944 1.56-.88.384-1.96801.576-3.26401.576zm15.06041-8.664l-4.008 4.128V23h-.816V6.2h.816v11.304L29.6691 6.2h1.008l-7.44 7.68 7.968 9.12h-1.008l-7.512-8.568zM34.5954 6.2h.816V23h-.816V6.2zm6.961 0h.816v16.056h9.84V23h-10.656V6.2zm13.9687 0h.816v16.056h9.84V23h-10.656V6.2zm18.0058 16.896c-1.216 0-2.376-.216-3.48-.648-1.088-.432-1.928-.992-2.52-1.68l.432-.576c.56.64 1.336 1.168 2.328 1.584 1.008.4 2.08.6 3.216.6 1.68 0 2.944-.328 3.792-.984.864-.672 1.296-1.528 1.296-2.568 0-.8-.224-1.44-.672-1.92-.448-.496-1-.864-1.656-1.104-.656-.256-1.552-.52-2.688-.792-1.216-.304-2.192-.6-2.928-.888-.736-.288-1.36-.728-1.872-1.32-.512-.592-.768-1.384-.768-2.376 0-.784.208-1.504.624-2.16.416-.656 1.048-1.176 1.896-1.56.864-.4 1.936-.6 3.216-.6.912 0 1.808.136 2.688.408.896.272 1.656.648 2.28 1.128l-.36.648c-.656-.48-1.392-.84-2.208-1.08-.8-.256-1.592-.384-2.376-.384-1.632 0-2.872.344-3.72 1.032-.832.672-1.248 1.528-1.248 2.568 0 .816.224 1.472.672 1.968.464.48 1.024.848 1.68 1.104.672.256 1.568.52 2.688.792 1.216.304 2.192.6 2.928.888.736.272 1.352.704 1.848 1.296.512.576.768 1.352.768 2.328 0 .784-.216 1.504-.648 2.16-.416.656-1.064 1.176-1.944 1.56-.88.384-1.968.576-3.264.576z" fill="#000"/></svg>